<mxfile host="app.diagrams.net" modified="2024-03-30T19:46:34.912Z" agent="Mozilla/5.0 (Windows NT 10.0; Win64; x64) AppleWebKit/537.36 (KHTML, like Gecko) Chrome/123.0.0.0 Safari/537.36" etag="21E-fZwIReiQ-LNMNcuh" version="24.2.1" type="github">
  <diagram name="Page-1" id="37WtdJA2QYoMQ6p9781p">
    <mxGraphModel dx="1167" dy="677" grid="1" gridSize="10" guides="1" tooltips="1" connect="1" arrows="1" fold="1" page="1" pageScale="1" pageWidth="583" pageHeight="827" math="0" shadow="0">
      <root>
        <mxCell id="0" />
        <mxCell id="1" parent="0" />
        <mxCell id="m6oUEpXov3LW6nHgIrFT-30" value="" style="group" parent="1" vertex="1" connectable="0">
          <mxGeometry x="46" y="60" width="492" height="370" as="geometry" />
        </mxCell>
        <mxCell id="m6oUEpXov3LW6nHgIrFT-21" value="" style="fontColor=#0066CC;verticalAlign=top;verticalLabelPosition=bottom;labelPosition=center;align=center;html=1;outlineConnect=0;fillColor=#CCCCCC;strokeColor=#6881B3;gradientColor=none;gradientDirection=north;strokeWidth=2;shape=mxgraph.networks.pc;" parent="m6oUEpXov3LW6nHgIrFT-30" vertex="1">
          <mxGeometry y="146.05263157894737" width="59.04" height="48.68421052631579" as="geometry" />
        </mxCell>
        <mxCell id="m6oUEpXov3LW6nHgIrFT-23" value="" style="endArrow=open;html=1;rounded=0;entryX=0.377;entryY=-0.009;entryDx=0;entryDy=0;endFill=0;entryPerimeter=0;" parent="m6oUEpXov3LW6nHgIrFT-30" target="m6oUEpXov3LW6nHgIrFT-19" edge="1">
          <mxGeometry relative="1" as="geometry">
            <mxPoint x="68.88" y="185" as="sourcePoint" />
            <mxPoint x="206.64" y="204.47368421052633" as="targetPoint" />
          </mxGeometry>
        </mxCell>
        <mxCell id="m6oUEpXov3LW6nHgIrFT-24" value="Spark-submit A1 and A2" style="text;html=1;align=center;verticalAlign=middle;whiteSpace=wrap;rounded=0;fontSize=11;spacing=2;labelPosition=center;verticalLabelPosition=middle;spacingBottom=-9;" parent="m6oUEpXov3LW6nHgIrFT-30" vertex="1">
          <mxGeometry x="59.04" y="160.6578947368421" width="127.92" height="19.473684210526315" as="geometry" />
        </mxCell>
        <mxCell id="m6oUEpXov3LW6nHgIrFT-25" value="Spark Client" style="text;html=1;align=center;verticalAlign=middle;whiteSpace=wrap;rounded=0;" parent="m6oUEpXov3LW6nHgIrFT-30" vertex="1">
          <mxGeometry x="9.84" y="205.69078947368422" width="78.72" height="29.210526315789476" as="geometry" />
        </mxCell>
        <mxCell id="m6oUEpXov3LW6nHgIrFT-17" value="" style="rounded=0;whiteSpace=wrap;html=1;fillColor=none;container=0;" parent="m6oUEpXov3LW6nHgIrFT-30" vertex="1">
          <mxGeometry x="197.08535999999998" width="294.91463999999996" height="370" as="geometry" />
        </mxCell>
        <mxCell id="m6oUEpXov3LW6nHgIrFT-18" value="" style="rounded=1;whiteSpace=wrap;html=1;container=0;" parent="m6oUEpXov3LW6nHgIrFT-30" vertex="1">
          <mxGeometry x="197.08854969275728" width="27.96731437879152" height="370" as="geometry" />
        </mxCell>
        <mxCell id="m6oUEpXov3LW6nHgIrFT-19" value="Cluster Manager(YARN)" style="text;html=1;align=center;verticalAlign=middle;whiteSpace=wrap;rounded=0;rotation=-90;fontSize=15;container=0;" parent="m6oUEpXov3LW6nHgIrFT-30" vertex="1">
          <mxGeometry x="113.1823446268433" y="146.05263157894737" width="195.78238821658158" height="27.384868421052634" as="geometry" />
        </mxCell>
        <mxCell id="m6oUEpXov3LW6nHgIrFT-1" value="A1&lt;div&gt;Driver&lt;/div&gt;" style="rounded=0;whiteSpace=wrap;html=1;container=0;" parent="m6oUEpXov3LW6nHgIrFT-30" vertex="1">
          <mxGeometry x="236.16" y="60.85526315789474" width="98.4" height="54.76973684210527" as="geometry" />
        </mxCell>
        <mxCell id="m6oUEpXov3LW6nHgIrFT-2" value="A1 Executor" style="rounded=0;whiteSpace=wrap;html=1;container=0;" parent="m6oUEpXov3LW6nHgIrFT-30" vertex="1">
          <mxGeometry x="393.6018722466202" y="19.478552631578943" width="83.90673780710641" height="27.38486842105263" as="geometry" />
        </mxCell>
        <mxCell id="m6oUEpXov3LW6nHgIrFT-3" value="A1 Executor" style="rounded=0;whiteSpace=wrap;html=1;container=0;" parent="m6oUEpXov3LW6nHgIrFT-30" vertex="1">
          <mxGeometry x="393.6018722466202" y="74.54769736842105" width="83.90673780710641" height="27.38486842105263" as="geometry" />
        </mxCell>
        <mxCell id="m6oUEpXov3LW6nHgIrFT-4" value="A1 Executor" style="rounded=0;whiteSpace=wrap;html=1;container=0;" parent="m6oUEpXov3LW6nHgIrFT-30" vertex="1">
          <mxGeometry x="393.6018722466202" y="126.58381578947366" width="83.90673780710641" height="27.38486842105263" as="geometry" />
        </mxCell>
        <mxCell id="m6oUEpXov3LW6nHgIrFT-5" value="" style="endArrow=open;html=1;rounded=0;entryX=0;entryY=0.5;entryDx=0;entryDy=0;exitX=1;exitY=0.5;exitDx=0;exitDy=0;endFill=0;" parent="m6oUEpXov3LW6nHgIrFT-30" source="m6oUEpXov3LW6nHgIrFT-1" target="m6oUEpXov3LW6nHgIrFT-2" edge="1">
          <mxGeometry relative="1" as="geometry">
            <mxPoint x="280.43889836731995" y="97.36842105263158" as="sourcePoint" />
            <mxPoint x="429.6064322466202" y="97.36842105263158" as="targetPoint" />
          </mxGeometry>
        </mxCell>
        <mxCell id="m6oUEpXov3LW6nHgIrFT-6" value="" style="endArrow=open;html=1;rounded=0;entryX=0;entryY=0.5;entryDx=0;entryDy=0;endFill=0;" parent="m6oUEpXov3LW6nHgIrFT-30" target="m6oUEpXov3LW6nHgIrFT-3" edge="1">
          <mxGeometry relative="1" as="geometry">
            <mxPoint x="334.56" y="88.60526315789474" as="sourcePoint" />
            <mxPoint x="438.9294031140765" y="38.03453947368421" as="targetPoint" />
          </mxGeometry>
        </mxCell>
        <mxCell id="m6oUEpXov3LW6nHgIrFT-7" value="" style="endArrow=open;html=1;rounded=0;entryX=0;entryY=0.5;entryDx=0;entryDy=0;endFill=0;exitX=1;exitY=0.5;exitDx=0;exitDy=0;" parent="m6oUEpXov3LW6nHgIrFT-30" source="m6oUEpXov3LW6nHgIrFT-1" target="m6oUEpXov3LW6nHgIrFT-4" edge="1">
          <mxGeometry relative="1" as="geometry">
            <mxPoint x="382.9915779093389" y="88.24013157894737" as="sourcePoint" />
            <mxPoint x="438.9294031140765" y="97.36842105263158" as="targetPoint" />
          </mxGeometry>
        </mxCell>
        <mxCell id="m6oUEpXov3LW6nHgIrFT-10" value="A2&lt;div&gt;Driver&lt;/div&gt;" style="rounded=0;whiteSpace=wrap;html=1;container=0;" parent="m6oUEpXov3LW6nHgIrFT-30" vertex="1">
          <mxGeometry x="236.16" y="243.42105263157896" width="98.4" height="54.76973684210527" as="geometry" />
        </mxCell>
        <mxCell id="m6oUEpXov3LW6nHgIrFT-11" value="A2 Executor" style="rounded=0;whiteSpace=wrap;html=1;container=0;" parent="m6oUEpXov3LW6nHgIrFT-30" vertex="1">
          <mxGeometry x="393.6018722466202" y="197.7796052631579" width="83.90673780710641" height="27.38486842105263" as="geometry" />
        </mxCell>
        <mxCell id="m6oUEpXov3LW6nHgIrFT-12" value="A2 Executor" style="rounded=0;whiteSpace=wrap;html=1;container=0;" parent="m6oUEpXov3LW6nHgIrFT-30" vertex="1">
          <mxGeometry x="393.6018722466202" y="257.11348684210526" width="83.90673780710641" height="27.38486842105263" as="geometry" />
        </mxCell>
        <mxCell id="m6oUEpXov3LW6nHgIrFT-13" value="A2 Executor" style="rounded=0;whiteSpace=wrap;html=1;container=0;" parent="m6oUEpXov3LW6nHgIrFT-30" vertex="1">
          <mxGeometry x="393.6018722466202" y="321.3206578947368" width="83.90673780710641" height="27.38486842105263" as="geometry" />
        </mxCell>
        <mxCell id="m6oUEpXov3LW6nHgIrFT-14" value="" style="endArrow=open;html=1;rounded=0;entryX=0;entryY=0.5;entryDx=0;entryDy=0;exitX=1;exitY=0.5;exitDx=0;exitDy=0;endFill=0;" parent="m6oUEpXov3LW6nHgIrFT-30" source="m6oUEpXov3LW6nHgIrFT-10" target="m6oUEpXov3LW6nHgIrFT-11" edge="1">
          <mxGeometry relative="1" as="geometry">
            <mxPoint x="280.43889836731995" y="279.9342105263158" as="sourcePoint" />
            <mxPoint x="429.6064322466202" y="279.9342105263158" as="targetPoint" />
          </mxGeometry>
        </mxCell>
        <mxCell id="m6oUEpXov3LW6nHgIrFT-15" value="" style="endArrow=open;html=1;rounded=0;entryX=0;entryY=0.5;entryDx=0;entryDy=0;endFill=0;exitX=1;exitY=0.5;exitDx=0;exitDy=0;" parent="m6oUEpXov3LW6nHgIrFT-30" source="m6oUEpXov3LW6nHgIrFT-10" target="m6oUEpXov3LW6nHgIrFT-12" edge="1">
          <mxGeometry relative="1" as="geometry">
            <mxPoint x="382.9915779093389" y="270.80592105263156" as="sourcePoint" />
            <mxPoint x="438.9294031140765" y="220.60032894736844" as="targetPoint" />
          </mxGeometry>
        </mxCell>
        <mxCell id="m6oUEpXov3LW6nHgIrFT-16" value="" style="endArrow=open;html=1;rounded=0;entryX=0;entryY=0.5;entryDx=0;entryDy=0;endFill=0;exitX=1;exitY=0.5;exitDx=0;exitDy=0;" parent="m6oUEpXov3LW6nHgIrFT-30" source="m6oUEpXov3LW6nHgIrFT-10" target="m6oUEpXov3LW6nHgIrFT-13" edge="1">
          <mxGeometry relative="1" as="geometry">
            <mxPoint x="382.9915779093389" y="270.80592105263156" as="sourcePoint" />
            <mxPoint x="438.9294031140765" y="279.9342105263158" as="targetPoint" />
          </mxGeometry>
        </mxCell>
        <mxCell id="MjBmEYa6jTw6Ko6ECoqG-1" value="&lt;font style=&quot;font-size: 15px;&quot;&gt;&amp;gt;&amp;gt;Cluster Mode&lt;/font&gt;" style="text;html=1;align=center;verticalAlign=middle;whiteSpace=wrap;rounded=1;strokeColor=none;dashed=1;dashPattern=1 1;perimeterSpacing=0;strokeWidth=0;" vertex="1" parent="m6oUEpXov3LW6nHgIrFT-30">
          <mxGeometry x="19.2" y="290" width="120.8" height="58.71" as="geometry" />
        </mxCell>
        <mxCell id="m6oUEpXov3LW6nHgIrFT-31" value="&lt;font style=&quot;font-size: 15px;&quot;&gt;&lt;b&gt;Processing Model&lt;/b&gt;&lt;/font&gt;" style="text;html=1;align=center;verticalAlign=middle;whiteSpace=wrap;rounded=0;" parent="1" vertex="1">
          <mxGeometry x="180" y="20" width="170" height="30" as="geometry" />
        </mxCell>
        <mxCell id="MjBmEYa6jTw6Ko6ECoqG-40" value="" style="group" vertex="1" connectable="0" parent="1">
          <mxGeometry x="52" y="490" width="480" height="290" as="geometry" />
        </mxCell>
        <mxCell id="MjBmEYa6jTw6Ko6ECoqG-2" value="" style="rounded=0;whiteSpace=wrap;html=1;fillColor=none;dashed=1;strokeWidth=2;" vertex="1" parent="MjBmEYa6jTw6Ko6ECoqG-40">
          <mxGeometry y="100" width="140" height="80" as="geometry" />
        </mxCell>
        <mxCell id="MjBmEYa6jTw6Ko6ECoqG-3" value="" style="fontColor=#0066CC;verticalAlign=top;verticalLabelPosition=bottom;labelPosition=center;align=center;html=1;outlineConnect=0;fillColor=#CCCCCC;strokeColor=#6881B3;gradientColor=none;gradientDirection=north;strokeWidth=2;shape=mxgraph.networks.pc;" vertex="1" parent="MjBmEYa6jTw6Ko6ECoqG-40">
          <mxGeometry x="10" y="120" width="50" height="40" as="geometry" />
        </mxCell>
        <mxCell id="MjBmEYa6jTw6Ko6ECoqG-4" value="Driver" style="rounded=0;whiteSpace=wrap;html=1;" vertex="1" parent="MjBmEYa6jTw6Ko6ECoqG-40">
          <mxGeometry x="70" y="120" width="60" height="40" as="geometry" />
        </mxCell>
        <mxCell id="MjBmEYa6jTw6Ko6ECoqG-5" value="&lt;font style=&quot;font-size: 14px;&quot;&gt;Client Machine&lt;/font&gt;" style="text;html=1;align=center;verticalAlign=middle;resizable=0;points=[];autosize=1;strokeColor=none;fillColor=none;" vertex="1" parent="MjBmEYa6jTw6Ko6ECoqG-40">
          <mxGeometry x="10" y="190" width="120" height="30" as="geometry" />
        </mxCell>
        <mxCell id="MjBmEYa6jTw6Ko6ECoqG-6" value="" style="rounded=0;whiteSpace=wrap;html=1;fillColor=none;" vertex="1" parent="MjBmEYa6jTw6Ko6ECoqG-40">
          <mxGeometry x="210" width="270" height="290" as="geometry" />
        </mxCell>
        <mxCell id="MjBmEYa6jTw6Ko6ECoqG-7" value="" style="endArrow=none;html=1;rounded=0;entryX=0;entryY=0.486;entryDx=0;entryDy=0;exitX=1;exitY=0.5;exitDx=0;exitDy=0;entryPerimeter=0;" edge="1" parent="MjBmEYa6jTw6Ko6ECoqG-40" source="MjBmEYa6jTw6Ko6ECoqG-2" target="MjBmEYa6jTw6Ko6ECoqG-6">
          <mxGeometry relative="1" as="geometry">
            <mxPoint x="10" y="60" as="sourcePoint" />
            <mxPoint x="170" y="60" as="targetPoint" />
          </mxGeometry>
        </mxCell>
        <mxCell id="MjBmEYa6jTw6Ko6ECoqG-31" value="Executor" style="rounded=0;whiteSpace=wrap;html=1;" vertex="1" parent="MjBmEYa6jTw6Ko6ECoqG-40">
          <mxGeometry x="360" y="40" width="90" height="30" as="geometry" />
        </mxCell>
        <mxCell id="MjBmEYa6jTw6Ko6ECoqG-32" value="Executor" style="rounded=0;whiteSpace=wrap;html=1;" vertex="1" parent="MjBmEYa6jTw6Ko6ECoqG-40">
          <mxGeometry x="360" y="120" width="90" height="30" as="geometry" />
        </mxCell>
        <mxCell id="MjBmEYa6jTw6Ko6ECoqG-33" value="Executor" style="rounded=0;whiteSpace=wrap;html=1;" vertex="1" parent="MjBmEYa6jTw6Ko6ECoqG-40">
          <mxGeometry x="360" y="200" width="90" height="30" as="geometry" />
        </mxCell>
        <mxCell id="MjBmEYa6jTw6Ko6ECoqG-34" value="" style="endArrow=open;html=1;rounded=0;entryX=0;entryY=0.5;entryDx=0;entryDy=0;endFill=0;" edge="1" parent="MjBmEYa6jTw6Ko6ECoqG-40" target="MjBmEYa6jTw6Ko6ECoqG-31">
          <mxGeometry relative="1" as="geometry">
            <mxPoint x="210" y="140" as="sourcePoint" />
            <mxPoint x="360" y="140" as="targetPoint" />
          </mxGeometry>
        </mxCell>
        <mxCell id="MjBmEYa6jTw6Ko6ECoqG-35" value="" style="endArrow=open;html=1;rounded=0;endFill=0;exitX=-0.001;exitY=0.486;exitDx=0;exitDy=0;exitPerimeter=0;" edge="1" parent="MjBmEYa6jTw6Ko6ECoqG-40" source="MjBmEYa6jTw6Ko6ECoqG-6">
          <mxGeometry relative="1" as="geometry">
            <mxPoint x="220" y="150" as="sourcePoint" />
            <mxPoint x="360" y="139" as="targetPoint" />
          </mxGeometry>
        </mxCell>
        <mxCell id="MjBmEYa6jTw6Ko6ECoqG-36" value="" style="endArrow=open;html=1;rounded=0;endFill=0;exitX=0;exitY=0.489;exitDx=0;exitDy=0;exitPerimeter=0;entryX=0.556;entryY=0.759;entryDx=0;entryDy=0;entryPerimeter=0;" edge="1" parent="MjBmEYa6jTw6Ko6ECoqG-40" source="MjBmEYa6jTw6Ko6ECoqG-6" target="MjBmEYa6jTw6Ko6ECoqG-6">
          <mxGeometry relative="1" as="geometry">
            <mxPoint x="220" y="151" as="sourcePoint" />
            <mxPoint x="370" y="149" as="targetPoint" />
          </mxGeometry>
        </mxCell>
        <mxCell id="MjBmEYa6jTw6Ko6ECoqG-38" value="Cluster Manager(YARN)" style="rounded=0;whiteSpace=wrap;html=1;" vertex="1" parent="MjBmEYa6jTw6Ko6ECoqG-40">
          <mxGeometry x="210" y="270" width="270" height="20" as="geometry" />
        </mxCell>
        <mxCell id="MjBmEYa6jTw6Ko6ECoqG-44" value="&lt;font style=&quot;font-size: 15px;&quot;&gt;&amp;gt;&amp;gt;Client Mode&lt;/font&gt;" style="text;html=1;align=center;verticalAlign=middle;whiteSpace=wrap;rounded=1;strokeColor=none;dashed=1;dashPattern=1 1;perimeterSpacing=0;strokeWidth=0;" vertex="1" parent="MjBmEYa6jTw6Ko6ECoqG-40">
          <mxGeometry x="38" y="220" width="120.8" height="58.71" as="geometry" />
        </mxCell>
        <mxCell id="MjBmEYa6jTw6Ko6ECoqG-41" value="Spark Cluster" style="text;html=1;align=center;verticalAlign=middle;resizable=0;points=[];autosize=1;strokeColor=none;fillColor=none;spacingBottom=-2;" vertex="1" parent="1">
          <mxGeometry x="350" y="470" width="100" height="20" as="geometry" />
        </mxCell>
        <mxCell id="MjBmEYa6jTw6Ko6ECoqG-43" value="Spark Cluster" style="text;html=1;align=center;verticalAlign=middle;resizable=0;points=[];autosize=1;strokeColor=none;fillColor=none;spacingBottom=-2;" vertex="1" parent="1">
          <mxGeometry x="370" y="40" width="100" height="20" as="geometry" />
        </mxCell>
      </root>
    </mxGraphModel>
  </diagram>
</mxfile>
